<?xml version="1.0" encoding="iso-8859-1"?>
<!-- Generator: Adobe Illustrator 19.0.0, SVG Export Plug-In . SVG Version: 6.00 Build 0)  -->
<svg xmlns="http://www.w3.org/2000/svg" xmlns:xlink="http://www.w3.org/1999/xlink" version="1.1" id="Layer_1" x="0px" y="0px" viewBox="0 0 512 512" style="enable-background:new 0 0 512 512;" xml:space="preserve" width="512" height="512">
<g>
	<path d="M376,330h-75v-7.722c38.298-13.581,68.698-43.98,82.278-82.278H391c33.084,0,60-26.916,60-60s-26.916-60-60-60V45   c0-24.813-20.187-45-45-45H166c-24.813,0-45,20.187-45,45v75c-33.084,0-60,26.916-60,60s26.916,60,60,60h7.722   c13.581,38.298,43.981,68.698,82.278,82.278V330h-75c-41.355,0-75,33.645-75,75v107h390V405C451,363.645,417.355,330,376,330z    M255.97,456.224L241.69,420h28.579L255.97,456.224z M233.481,480.976l-76.537-63.143l34.597-43.246L233.481,480.976z M278.047,482   l42.404-107.424l34.656,43.32L278.274,482H278.047z M421,180c0,16.542-13.458,30-30,30h-0.838c0.547-4.927,0.838-9.93,0.838-15v-45   C407.542,150,421,163.458,421,180z M346,30c8.271,0,15,6.729,15,15v75h-90V90h30V60h-30V30H346z M166,30h75v30h-30v30h30v30h-90V45   C151,36.729,157.729,30,166,30z M121,210c-16.542,0-30-13.458-30-30s13.458-30,30-30v45c0,5.07,0.291,10.073,0.838,15H121z    M151,195v-45h210v45c0,57.897-47.103,105-105,105S151,252.897,151,195z M256,330c5.07,0,10.073-0.291,15-0.838V360h22.953   l-11.842,30h-52.248l-11.827-30H241v-30.838C245.927,329.709,250.93,330,256,330z M91,405c0-24.813,20.187-45,45-45h28.791   l-49.734,62.167L187.581,482H91V405z M421,482h-95.897l71.79-59.896L347.209,360H376c24.813,0,45,20.187,45,45V482z"/>
	<path d="M301,225h-30c0,8.271-6.729,15-15,15s-15-6.729-15-15h-30c0,24.813,20.187,45,45,45C280.813,270,301,249.813,301,225z"/>
</g>















</svg>
