<svg height="512pt" viewBox="-8 0 511 512" width="512pt" xmlns="http://www.w3.org/2000/svg"><path d="m480.75 330.050781h-53.867188v-314.316406c0-8.691406-7.042968-15.734375-15.734374-15.734375h-394.914063c-8.691406 0-15.734375 7.042969-15.734375 15.734375v414.742187c0 44.953126 36.570312 81.523438 81.523438 81.523438h329.125c.011718 0 .023437-.003906.035156-.003906.007812 0 .019531.003906.03125.003906 22.152344 0 43.121094-7.066406 59.039062-19.894531 16.914063-13.628907 26.230469-32.050781 26.230469-51.867188v-94.453125c-.003906-8.6875-7.046875-15.734375-15.734375-15.734375zm-85.335938 150.484375h-313.390624c-27.601563 0-50.058594-22.457031-50.058594-50.058594v-399.011718h363.449218zm69.601563-40.296875c0 18.136719-16.085937 33.511719-38.132813 38.546875v-117.265625h38.132813zm0 0"/><path d="m107.867188 349.113281h211.648437c8.6875 0 15.734375-7.046875 15.734375-15.734375s-7.046875-15.734375-15.734375-15.734375h-211.648437c-8.691407 0-15.734376 7.046875-15.734376 15.734375s7.042969 15.734375 15.734376 15.734375zm0 0"/><path d="m107.867188 424.300781h211.648437c8.6875 0 15.734375-7.042969 15.734375-15.734375 0-8.6875-7.046875-15.730468-15.734375-15.730468h-211.648437c-8.691407 0-15.734376 7.042968-15.734376 15.730468 0 8.691406 7.042969 15.734375 15.734376 15.734375zm0 0"/><path d="m190.316406 192.460938c.105469.054687.207032.101562.3125.152343l7.328125 3.433594v40.414063c-6.183593-1.496094-12.019531-3.910157-17.175781-7.179688-7.339844-4.65625-17.0625-2.480469-21.714844 4.855469-4.65625 7.335937-2.480468 17.058593 4.859375 21.714843 10.117188 6.421876 21.789063 10.757813 34.03125 12.6875v2.464844c0 8.691406 7.042969 15.734375 15.734375 15.734375 8.6875 0 15.730469-7.042969 15.730469-15.734375v-1.96875c5.164063-.726562 10.21875-1.96875 14.726563-3.960937 19.140624-7.953125 30.9375-25.496094 29.382812-43.722657-2.113281-24.707031-25.316406-36.207031-36.464844-41.734374-.105468-.050782-.210937-.101563-.316406-.148438l-7.328125-3.433594v-40.417968c6.1875 1.496093 12.023437 3.910156 17.179687 7.183593 7.335938 4.652344 17.058594 2.476563 21.710938-4.859375 4.65625-7.335937 2.480469-17.058594-4.855469-21.710937-10.121093-6.421875-21.789062-10.757813-34.035156-12.691407v-.109374c0-8.6875-7.042969-15.730469-15.730469-15.730469-8.558594 0-15.507812 6.835937-15.714844 15.347656-5.171874.722656-10.230468 1.960937-14.746093 3.960937-19.136719 7.953126-30.933594 25.496094-29.378907 43.71875 2.109376 24.707032 25.3125 36.210938 36.464844 41.734376zm51.863282 31.570312c.378906 4.460938-3.820313 9.40625-10.210938 12.027344-.164062.070312-.332031.140625-.496094.214844-.59375.265624-1.28125.507812-2.046875.726562v-25.84375c8.507813 4.835938 12.40625 8.824219 12.753907 12.875zm-46.765626-88.011719c.164063-.066406.332032-.136719.496094-.210937.59375-.269532 1.28125-.511719 2.046875-.730469v25.84375c-8.507812-4.832031-12.40625-8.820313-12.753906-12.871094-.378906-4.460937 3.816406-9.40625 10.210937-12.03125zm0 0"/></svg>