<?xml version="1.0" encoding="iso-8859-1"?>
<!-- Generator: Adobe Illustrator 19.0.0, SVG Export Plug-In . SVG Version: 6.00 Build 0)  -->
<svg version="1.1" id="Capa_1" xmlns="http://www.w3.org/2000/svg" xmlns:xlink="http://www.w3.org/1999/xlink" x="0px" y="0px"
	 viewBox="0 0 512 512" style="enable-background:new 0 0 512 512;" xml:space="preserve">
<g>
	<g>
		<path d="M472,237V100H60c-11.028,0-20-8.972-20-20s8.972-20,20-20h372V20H60C26.916,20,0,46.916,0,80v352
			c0,33.084,26.916,60,60,60h412V357h40V237H472z M432,452H60c-11.028,0-20-8.972-20-20V136.56c6.26,2.22,12.989,3.44,20,3.44h372
			v97h-46c-33.084,0-60,26.916-60,60s26.916,60,60,60h46V452z M472,317h-86c-11.028,0-20-8.972-20-20s8.972-20,20-20h86V317z"/>
	</g>
</g>
<g>
</g>
<g>
</g>
<g>
</g>
<g>
</g>
<g>
</g>
<g>
</g>
<g>
</g>
<g>
</g>
<g>
</g>
<g>
</g>
<g>
</g>
<g>
</g>
<g>
</g>
<g>
</g>
<g>
</g>
</svg>
